<svg width="56" height="56" viewBox="0 0 56 56" fill="none" xmlns="http://www.w3.org/2000/svg">
<g clip-path="url(#clip0_0_308)">
<path d="M28.561 48.5159L28.5299 48.5106C22.2671 40.5603 13.9995 30.0469 13.9995 22.9435C13.9995 12.388 21.3343 4.03862 31.4137 2.46154C30.3106 2.2847 29.1793 2.19141 28.0256 2.19141H27.9985C16.259 2.19141 6.78125 11.7081 6.78125 23.4476C6.78125 30.5511 15.4082 42.7801 21.6709 50.7304C24.6913 54.5643 30.3127 54.818 33.6854 51.5029C31.7479 51.2084 29.899 50.2143 28.561 48.5159Z" fill="#CEE1F2"/>
<path d="M44.5733 6.87422C40.1622 2.44418 34.2855 0.00440949 28.0258 0.00440949H27.9988C15.3935 -0.253588 4.33479 10.8474 4.59432 23.4481C4.92428 32.3457 13.4839 43.6454 20.1497 52.3267C22.1072 54.6652 24.9595 56 28.0238 56C31.1955 55.9999 34.1403 54.5708 36.103 52.079C41.0479 45.9341 51.7256 31.1542 51.4033 23.4479C51.4034 17.1836 48.9777 11.2977 44.5733 6.87422ZM32.6664 49.372C30.4059 52.3538 25.6507 52.3592 23.3893 49.3772C14.3509 37.8681 8.9688 28.2835 8.9688 23.448C8.9688 12.9334 17.5056 4.37922 27.9988 4.37922H28.0258C38.5041 4.37922 47.0287 12.9335 47.0287 23.448C47.0287 28.3361 41.7938 37.785 32.6664 49.372Z" fill="#3C9CD6"/>
<path d="M28.2181 32.7058C23.0922 32.7058 18.9219 28.5355 18.9219 23.4095C18.9219 18.2836 23.0922 14.1133 28.2181 14.1133C33.3441 14.1133 37.5144 18.2836 37.5144 23.4095C37.5144 28.5355 33.3441 32.7058 28.2181 32.7058ZM28.2181 18.488C25.5044 18.488 23.2966 20.6958 23.2966 23.4095C23.2966 26.1233 25.5044 28.3311 28.2181 28.3311C30.9319 28.3311 33.1397 26.1233 33.1397 23.4095C33.1397 20.6958 30.932 18.488 28.2181 18.488Z" fill="#2C2D33"/>
</g>
<defs>
<clipPath id="clip0_0_308">
<rect width="56" height="56" fill="white"/>
</clipPath>
</defs>
</svg>
