<svg width="56" height="57" viewBox="0 0 56 57" fill="none" xmlns="http://www.w3.org/2000/svg">
<circle cx="28" cy="28.5" r="27.5" stroke="#8AC44B"/>
<g clip-path="url(#clip0_0_359)">
<path d="M28.0054 13.1016H27.9977C19.5065 13.1016 12.6016 20.0085 12.6016 28.5016C12.6016 31.8703 13.6873 34.9927 15.5333 37.5279L13.6141 43.249L19.5335 41.3567C21.9686 42.9699 24.8734 43.9016 28.0054 43.9016C36.4966 43.9016 43.4016 36.9927 43.4016 28.5016C43.4016 20.0104 36.4966 13.1016 28.0054 13.1016ZM36.9663 34.8483C36.5948 35.8974 35.1202 36.7675 33.944 37.0216C33.1394 37.1929 32.0883 37.3296 28.5502 35.8628C24.0245 33.9878 21.1101 29.389 20.8829 29.0906C20.6654 28.7922 19.0542 26.6555 19.0542 24.4456C19.0542 22.2357 20.1764 21.1596 20.6288 20.6976C21.0003 20.3184 21.6144 20.1451 22.2035 20.1451C22.394 20.1451 22.5654 20.1548 22.7194 20.1625C23.1717 20.1817 23.3989 20.2087 23.6973 20.9228C24.0688 21.818 24.9735 24.0279 25.0813 24.255C25.1911 24.4822 25.3008 24.7902 25.1468 25.0885C25.0024 25.3965 24.8754 25.5332 24.6482 25.795C24.4211 26.0568 24.2055 26.257 23.9783 26.5381C23.7704 26.7825 23.5356 27.0443 23.7974 27.4967C24.0592 27.9395 24.9639 29.4159 26.296 30.6017C28.015 32.1321 29.4087 32.6211 29.9073 32.829C30.2788 32.983 30.7216 32.9464 30.993 32.6576C31.3376 32.2861 31.763 31.6701 32.1961 31.0637C32.5041 30.6287 32.893 30.5748 33.3011 30.7288C33.7169 30.8732 35.9172 31.9608 36.3695 32.186C36.8219 32.4132 37.1203 32.521 37.23 32.7115C37.3378 32.9021 37.3378 33.7972 36.9663 34.8483Z" fill="#8AC44B"/>
</g>
<defs>
<clipPath id="clip0_0_359">
<rect width="30.8" height="30.8" fill="white" transform="translate(12.6016 13.1016)"/>
</clipPath>
</defs>
</svg>
